<svg width="18" height="16" viewBox="0 0 18 16" fill="none" xmlns="http://www.w3.org/2000/svg">
<g clip-path="url(#clip0_43_420)">
<path d="M9.0002 1C6.4752 1 4.45332 2.15 2.98145 3.51875C1.51895 4.875 0.54082 6.5 0.0783203 7.61562C-0.0248047 7.8625 -0.0248047 8.1375 0.0783203 8.38437C0.54082 9.5 1.51895 11.125 2.98145 12.4812C4.45332 13.85 6.4752 15 9.0002 15C11.5252 15 13.5471 13.85 15.0189 12.4812C16.4814 11.1219 17.4596 9.5 17.9252 8.38437C18.0283 8.1375 18.0283 7.8625 17.9252 7.61562C17.4596 6.5 16.4814 4.875 15.0189 3.51875C13.5471 2.15 11.5252 1 9.0002 1ZM13.5002 8C13.5002 10.4844 11.4846 12.5 9.0002 12.5C6.51582 12.5 4.5002 10.4844 4.5002 8C4.5002 5.51562 6.51582 3.5 9.0002 3.5C11.4846 3.5 13.5002 5.51562 13.5002 8ZM9.0002 6C9.0002 7.10313 8.10332 8 7.0002 8C6.64082 8 6.30332 7.90625 6.0127 7.7375C6.00645 7.825 6.0002 7.90938 6.0002 8C6.0002 9.65625 7.34395 11 9.0002 11C10.6564 11 12.0002 9.65625 12.0002 8C12.0002 6.34375 10.6564 5 9.0002 5C8.9127 5 8.8252 5.00312 8.7377 5.0125C8.90332 5.30312 9.0002 5.64062 9.0002 6Z" fill="#2B2A29"/>
</g>
<defs>
<clipPath id="clip0_43_420">
<rect width="18" height="16" fill="white"/>
</clipPath>
</defs>
</svg>
