<svg xmlns="http://www.w3.org/2000/svg" width="110" height="16" fill="none">
  <g clip-path="url(#a)">
    <path fill="#F3CC3C" stroke="#F3CC3C"
      d="M9.601.78h.001l2.006 4.135.115.238.261.038 4.482.663a.501.501 0 0 1 .277.85l-3.25 3.222-.184.183.043.256.77 4.551v.001a.507.507 0 0 1-.203.491.497.497 0 0 1-.527.034l-4-2.14-.235-.125-.236.126-4 2.14a.503.503 0 0 1-.73-.526l.768-4.553.043-.255-.184-.183-3.25-3.222a.507.507 0 0 1-.123-.514.497.497 0 0 1 .4-.336l4.478-.663.261-.038.116-.238L8.704.783V.782a.5.5 0 0 1 .897-.003Z" />
  </g>
  <g clip-path="url(#b)">
    <path fill="#F3CC3C" stroke="#F3CC3C"
      d="m32.568.78 2.006 4.135.115.238.262.038 4.48.663h.002a.5.5 0 0 1 .277.85l-3.25 3.222-.185.183.043.256.77 4.551v.001a.507.507 0 0 1-.203.491.497.497 0 0 1-.526.034l-4-2.14-.236-.125-.236.126-4 2.14a.503.503 0 0 1-.73-.526l.768-4.553.043-.255-.184-.183-3.25-3.222a.507.507 0 0 1-.123-.514.497.497 0 0 1 .4-.336l4.478-.663.262-.038.115-.238L31.67.783V.782a.5.5 0 0 1 .897-.003Z" />
  </g>
  <g clip-path="url(#c)">
    <path fill="#F3CC3C" stroke="#F3CC3C"
      d="m55.535.78 2.006 4.135.115.238.262.038 4.48.663h.001a.501.501 0 0 1 .277.85l-3.25 3.222-.184.183.043.256.77 4.551v.001a.507.507 0 0 1-.203.491.497.497 0 0 1-.525.035h-.002l-4-2.14-.235-.126-.236.126-4 2.14a.503.503 0 0 1-.73-.526l.768-4.553.043-.255-.184-.183-3.25-3.222a.507.507 0 0 1-.123-.514.497.497 0 0 1 .4-.336l4.478-.663.261-.038.116-.238L54.638.783V.782a.5.5 0 0 1 .897-.003Z" />
  </g>
  <g clip-path="url(#d)">
    <path fill="#F3CC3C" stroke="#F3CC3C"
      d="M78.5.78h.002l2.005 4.135.115.238.262.038 4.481.663a.5.5 0 0 1 .278.85l-3.25 3.222-.185.183.043.256.77 4.551v.001a.507.507 0 0 1-.203.491.497.497 0 0 1-.526.034l-4-2.14-.236-.125-.236.126-4 2.14a.503.503 0 0 1-.73-.526l.768-4.553.043-.255-.184-.183-3.25-3.222a.507.507 0 0 1-.123-.514.497.497 0 0 1 .4-.336l4.478-.663.262-.038.115-.238L77.604.783V.782a.5.5 0 0 1 .897-.003Z" />
  </g>
  <g clip-path="url(#e)">
    <path stroke="#F3CC3C"
      d="M101.467.78h.001l2.006 4.135.115.238.261.038 4.481.663h.001a.499.499 0 0 1 .277.85l-3.25 3.222-.185.183.044.256.77 4.551v.001a.507.507 0 0 1-.204.491.496.496 0 0 1-.525.035h-.001l-4-2.14-.235-.126-.236.126-4 2.14a.503.503 0 0 1-.73-.526l.767-4.553.043-.255-.184-.183-3.25-3.222a.507.507 0 0 1-.122-.514.497.497 0 0 1 .4-.336l4.478-.663.261-.038.115-.238L100.57.783V.782a.5.5 0 0 1 .897-.003Z" />
  </g>
  <defs>
    <clipPath id="a">
      <path fill="#fff" d="M.167 0h17.966v16H.167z" />
    </clipPath>
    <clipPath id="b">
      <path fill="#fff" d="M23.134 0H41.1v16H23.134z" />
    </clipPath>
    <clipPath id="c">
      <path fill="#fff" d="M46.1 0h17.967v16H46.1z" />
    </clipPath>
    <clipPath id="d">
      <path fill="#fff" d="M69.067 0h17.966v16H69.067z" />
    </clipPath>
    <clipPath id="e">
      <path fill="#fff" d="M92.033 0H110v16H92.033z" />
    </clipPath>
  </defs>
</svg>