<svg width="30" height="31" viewBox="0 0 30 31" fill="none" xmlns="http://www.w3.org/2000/svg">
<rect width="30" height="30" transform="translate(0 0.711914)" fill="#F9F9F9"/>
<path d="M19.0419 5.71191H10.9581C7.67279 5.71191 5 8.38471 5 11.67V19.7538C5 23.0391 7.67279 25.7119 10.9581 25.7119H19.0419C22.3272 25.7119 25 23.0391 25 19.7538V11.67C25 8.38471 22.3272 5.71191 19.0419 5.71191ZM22.988 19.7538C22.988 21.9332 21.2213 23.6999 19.0419 23.6999H10.9581C8.77875 23.6999 7.012 21.9332 7.012 19.7538V11.67C7.012 9.49063 8.77875 7.72391 10.9581 7.72391H19.0419C21.2213 7.72391 22.988 9.49063 22.988 11.67V19.7538Z" fill="#2B2A29"/>
<path d="M14.9999 10.5391C12.1476 10.5391 9.82715 12.8595 9.82715 15.7117C9.82715 18.5639 12.1476 20.8844 14.9999 20.8844C17.8521 20.8844 20.1726 18.564 20.1726 15.7117C20.1726 12.8595 17.8521 10.5391 14.9999 10.5391ZM14.9999 18.8725C13.2542 18.8725 11.8391 17.4574 11.8391 15.7118C11.8391 13.9661 13.2543 12.5511 14.9999 12.5511C16.7455 12.5511 18.1606 13.9661 18.1606 15.7118C18.1606 17.4574 16.7455 18.8725 14.9999 18.8725Z" fill="#2B2A29"/>
<path d="M20.1828 11.8173C20.8673 11.8173 21.4223 11.2624 21.4223 10.5778C21.4223 9.8933 20.8673 9.33838 20.1828 9.33838C19.4983 9.33838 18.9434 9.8933 18.9434 10.5778C18.9434 11.2624 19.4983 11.8173 20.1828 11.8173Z" fill="#2B2A29"/>
</svg>
