<svg xmlns="http://www.w3.org/2000/svg" width="16" height="16" fill="none">
  <g clip-path="url(#a)">
    <path fill="#2B2A29"
      d="M16 7.5c0 3.59-3.581 6.5-8 6.5-1.16 0-2.26-.2-3.253-.56a9.254 9.254 0 0 1-1.697.957C2.3 14.722 1.397 15 .5 15a.5.5 0 0 1-.356-.853l.01-.01.04-.043c.034-.038.087-.097.153-.178.128-.157.3-.388.475-.675.312-.52.61-1.2.669-1.966C.553 10.212 0 8.909 0 7.5 0 3.91 3.581 1 8 1c4.419 0 8 2.91 8 6.5Z" />
  </g>
  <defs>
    <clipPath id="a">
      <path fill="#fff" d="M0 0h16v16H0z" />
    </clipPath>
  </defs>
</svg>