<svg xmlns="http://www.w3.org/2000/svg" width="18" height="16" fill="none">
  <g clip-path="url(#a)">
    <path fill="#2B2A29"
      d="M9 1C6.475 1 4.453 2.15 2.981 3.519 1.52 4.875.541 6.5.078 7.616a.994.994 0 0 0 0 .768C.541 9.5 1.52 11.125 2.981 12.481 4.453 13.85 6.475 15 9.001 15c2.524 0 4.546-1.15 6.018-2.519 1.462-1.36 2.44-2.981 2.906-4.097a.994.994 0 0 0 0-.768C17.46 6.5 16.481 4.875 15.02 3.519 13.547 2.15 11.525 1 9 1Zm4.5 7a4.501 4.501 0 0 1-9 0 4.501 4.501 0 0 1 9 0ZM9 6c0 1.103-.897 2-2 2-.36 0-.697-.094-.987-.263a3 3 0 1 0 2.725-2.725C8.903 5.304 9 5.642 9 6Z" />
  </g>
  <defs>
    <clipPath id="a">
      <path fill="#fff" d="M0 0h18v16H0z" />
    </clipPath>
  </defs>
</svg>