<svg width="26" height="18" viewBox="0 0 26 18" fill="none" xmlns="http://www.w3.org/2000/svg">
<path d="M1.18994 4.18134L12.0861 0.164179C12.6798 -0.0547262 13.3205 -0.0547262 13.9138 0.164179L24.8103 4.18134C25.7299 4.52024 25.7299 5.97945 24.8103 6.31836L22.9107 7.01867C23.3275 7.63694 23.5838 8.39116 23.6092 9.21709C23.9853 9.47584 24.2502 9.94271 24.2502 10.5C24.2502 11.0054 24.0283 11.4305 23.7088 11.7024L24.7061 17.0873C24.7928 17.5556 24.4959 18 24.0963 18H21.9045C21.5045 18 21.2076 17.5556 21.2943 17.0873L22.2916 11.7024C21.9721 11.4305 21.7502 11.0054 21.7502 10.5C21.7502 9.95771 22.0029 9.50396 22.3619 9.24053C22.3322 8.53647 22.0322 7.91397 21.5537 7.51929L13.9142 10.336C13.5603 10.4663 12.8814 10.629 12.0865 10.336L1.18994 6.31883C0.270018 5.97945 0.270018 4.52071 1.18994 4.18134ZM11.7193 11.7699C12.8337 12.1805 13.7834 11.9536 14.2814 11.7699L19.9463 9.68162L20.5002 15C20.5002 16.657 17.1424 18 13.0001 18C8.85794 18 5.50012 16.657 5.50012 15L6.05403 9.68115L11.7193 11.7699Z" fill="#2B2A29"/>
</svg>
