<svg
  xmlns="http://www.w3.org/2000/svg"
  viewBox="0 0 256 256"
  fill="#2B2A29"
>
  <path
    d="M238.8 126.2c-3.4-1.9-12.2-2.8-17.5-3.2 4.3-6-4.8-23.2-5.9-24.4-1.1-1.1-14.9-8.4-22.1-6.9 1.5-7.2-5.8-21.1-6.9-22.1-1.1-1.1-14.9-8.4-22.1-6.9 1.5-7.2-5.8-21.1-6.9-22.1-1.2-1.2-18.9-10.5-24.6-5.8-.3-5.3-1-14.3-2.9-17.7-2.8-5-13-13.5-17.6.4l-55 131.2.4-.5 6.2 6.2 21-33.4 7.1 7.1-21.8 32.5 4.4 4.4 25-29.3 6.9 6.9-25.8 28.5 4.2 4.1 28.5-25.8 6.9 6.9-29.3 25 4.4 4.4 32.5-21.8 7.1 7.1-33.4 21 6.2 6.2-.5.4 131.2-55c13.8-4.4 5.3-14.7.3-17.4zm-137.4-12-7.5-7.5 8.3-13.2c1.9-2.9 5.6-4.2 8.3-2.8 2.6 1.4 3.3 5 1.3 7.9l-10.4 15.6zm16.2 16.2-7.3-7.2 10.6-12.4c2.3-2.6 6.1-3.3 8.4-1.4 2.3 1.9 2.2 5.6-.1 8.2l-11.6 12.8zm15.3 15.2-7.3-7.2 12.8-11.6c2.6-2.3 6.3-2.4 8.2-.1 1.9 2.3 1.3 6-1.4 8.4l-12.3 10.5zm29.6 8.1-13.2 8.3-7.5-7.5 15.6-10.5c2.9-1.9 6.5-1.3 7.9 1.3 1.4 2.8.1 6.5-2.8 8.4zM21.2 184.8l-.2.2c-14.3 14.3-14.7 37.1-.9 50.9 13.8 13.8 36.6 13.4 50.9-.9l.2-.2 21.6-21.6-50-50-21.6 21.6zm23.4 47.7c-3.3 3.3-10.6 1.2-16.5-4.6-5.8-5.8-7.9-13.2-4.6-16.5 3.3-3.3 8.1 1.3 13.9 7.2 5.8 5.8 10.4 10.7 7.2 13.9z"
  />
</svg>