<svg width="25" height="24" viewBox="0 0 25 24" fill="none" xmlns="http://www.w3.org/2000/svg">
<path d="M14.6751 6H9.82486C7.85368 6 6.25 7.60368 6.25 9.57486V14.4251C6.25 16.3963 7.85368 18 9.82486 18H14.6751C16.6463 18 18.25 16.3963 18.25 14.4251V9.57486C18.25 7.60368 16.6463 6 14.6751 6ZM17.0428 14.4251C17.0428 15.7327 15.9827 16.7928 14.6751 16.7928H9.82486C8.51725 16.7928 7.4572 15.7327 7.4572 14.4251V9.57486C7.4572 8.26723 8.51725 7.2072 9.82486 7.2072H14.6751C15.9827 7.2072 17.0428 8.26723 17.0428 9.57486V14.4251Z" fill="#2B2A29"/>
<path d="M12.2501 8.89648C10.5388 8.89648 9.14648 10.2888 9.14648 12.0001C9.14648 13.7114 10.5388 15.1037 12.2501 15.1037C13.9615 15.1037 15.3537 13.7114 15.3537 12.0001C15.3537 10.2887 13.9615 8.89648 12.2501 8.89648ZM12.2501 13.8965C11.2027 13.8965 10.3537 13.0475 10.3537 12.0001C10.3537 10.9527 11.2028 10.1037 12.2501 10.1037C13.2975 10.1037 14.1465 10.9527 14.1465 12.0001C14.1465 13.0475 13.2975 13.8965 12.2501 13.8965Z" fill="#2B2A29"/>
<path d="M15.3596 9.66337C15.7704 9.66337 16.1033 9.33041 16.1033 8.9197C16.1033 8.50898 15.7704 8.17603 15.3596 8.17603C14.9489 8.17603 14.616 8.50898 14.616 8.9197C14.616 9.33041 14.9489 9.66337 15.3596 9.66337Z" fill="#2B2A29"/>
<rect x="0.75" y="0.5" width="23" height="23" rx="11.5" stroke="#2B2A29"/>
</svg>
