<svg width="25" height="24" viewBox="0 0 25 24" fill="none" xmlns="http://www.w3.org/2000/svg">
<g clip-path="url(#clip0_140_1744)">
<path d="M17.0165 9.55588C17.0241 9.66247 17.0241 9.76909 17.0241 9.87568C17.0241 13.1269 14.5495 16.8731 10.0266 16.8731C8.63324 16.8731 7.33884 16.4696 6.25 15.7691C6.44798 15.7919 6.63831 15.7995 6.84391 15.7995C7.99363 15.7995 9.05202 15.4112 9.8972 14.7488C8.81598 14.7259 7.90989 14.0178 7.5977 13.0432C7.75 13.066 7.90227 13.0812 8.06219 13.0812C8.28299 13.0812 8.50382 13.0508 8.70939 12.9975C7.58249 12.7691 6.73729 11.7792 6.73729 10.5838V10.5534C7.06469 10.7361 7.44543 10.8503 7.84895 10.8655C7.18652 10.4239 6.75252 9.67009 6.75252 8.81729C6.75252 8.36045 6.87433 7.94166 7.08754 7.57618C8.2982 9.06856 10.118 10.0432 12.1586 10.1498C12.1205 9.96704 12.0977 9.7767 12.0977 9.58634C12.0977 8.231 13.1941 7.12695 14.5571 7.12695C15.2652 7.12695 15.9048 7.42391 16.354 7.9036C16.9098 7.79701 17.4428 7.59141 17.9149 7.3097C17.7322 7.88077 17.3439 8.36047 16.8337 8.66502C17.3286 8.61174 17.8083 8.47466 18.25 8.28432C17.915 8.77161 17.4962 9.2056 17.0165 9.55588Z" fill="#2B2A29"/>
</g>
<rect x="0.75" y="0.5" width="23" height="23" rx="11.5" stroke="#2B2A29"/>
<defs>
<clipPath id="clip0_140_1744">
<rect width="12" height="12" fill="white" transform="translate(6.25 6)"/>
</clipPath>
</defs>
</svg>
