<svg
  width="16"
  height="16"
  viewBox="0 0 16 16"
  fill="none"
  xmlns="http://www.w3.org/2000/svg"
>
  <path
    d="M1.4875 9.38752L7.13438 14.6594C7.36875 14.8781 7.67812 15 8 15C8.32187 15 8.63125 14.8781 8.86563 14.6594L14.5125 9.38752C15.4625 8.50314 16 7.26251 16 5.96564V5.78439C16 3.60001 14.4219 1.73751 12.2688 1.37814C10.8438 1.14064 9.39375 1.60626 8.375 2.62501L8 3.00001L7.625 2.62501C6.60625 1.60626 5.15625 1.14064 3.73125 1.37814C1.57812 1.73751 0 3.60001 0 5.78439V5.96564C0 7.26251 0.5375 8.50314 1.4875 9.38752Z"
    fill="#F9F9F9"
  />
</svg>